<svg xmlns="http://www.w3.org/2000/svg" width="122" height="43.952" viewBox="0 0 122 43.952">
  <g id="Group_4" data-name="Group 4" transform="translate(-1658 -2628.048)">
    <g id="facebook_2_" data-name="facebook (2)" transform="translate(1658 2628.048)">
      <path id="Path_7" data-name="Path 7" d="M291.407,508.668q-.275.045-.551.082Q291.132,508.713,291.407,508.668Zm0,0" transform="translate(-265.887 -465.002)" fill="#f8f8f8"/>
      <path id="Path_8" data-name="Path 8" d="M299.6,507.793l-.263.046Zm0,0" transform="translate(-273.643 -464.202)" fill="#f8f8f8"/>
      <path id="Path_9" data-name="Path 9" d="M278.256,510.34q-.321.036-.646.064Q277.934,510.376,278.256,510.34Zm0,0" transform="translate(-253.778 -466.53)" fill="#f8f8f8"/>
      <path id="Path_10" data-name="Path 10" d="M286.755,509.738l-.31.039Zm0,0" transform="translate(-261.856 -465.98)" fill="#f8f8f8"/>
      <path id="Path_11" data-name="Path 11" d="M306.9,506.41l-.232.049Zm0,0" transform="translate(-280.339 -462.938)" fill="#f8f8f8"/>
      <path id="Path_12" data-name="Path 12" d="M324.671,502.113l-.187.052Zm0,0" transform="translate(-296.629 -459.01)" fill="#f8f8f8"/>
      <path id="Path_13" data-name="Path 13" d="M319.262,503.543l-.2.053Zm0,0" transform="translate(-291.669 -460.317)" fill="#f8f8f8"/>
      <path id="Path_14" data-name="Path 14" d="M312.283,505.254l-.217.049Zm0,0" transform="translate(-285.277 -461.881)" fill="#f8f8f8"/>
      <path id="Path_15" data-name="Path 15" d="M273.828,511.09q-.174.015-.347.026Q273.655,511.1,273.828,511.09Zm0,0" transform="translate(-250.004 -467.216)" fill="#f8f8f8"/>
      <path id="Path_16" data-name="Path 16" d="M43.952,21.976A21.976,21.976,0,1,0,21.976,43.952c.129,0,.258,0,.386-.005V26.84H17.641v-5.5h4.721V17.288c0-4.7,2.867-7.252,7.056-7.252a38.866,38.866,0,0,1,4.233.216v4.908H30.762c-2.279,0-2.72,1.083-2.72,2.672v3.5h5.449l-.71,5.5H28.042V43.1A21.988,21.988,0,0,0,43.952,21.976Zm0,0" fill="#f8f8f8"/>
      <path id="Path_17" data-name="Path 17" d="M265.579,511.43q-.343.022-.689.034Q265.236,511.452,265.579,511.43Zm0,0" transform="translate(-242.151 -467.526)" fill="#f8f8f8"/>
      <path id="Path_18" data-name="Path 18" d="M260.869,511.836q-.182.006-.365.009Q260.686,511.842,260.869,511.836Zm0,0" transform="translate(-238.141 -467.898)" fill="#f8f8f8"/>
    </g>
    <g id="instagram_1_" data-name="instagram (1)" transform="translate(1736.048 2628.048)">
      <path id="Path_19" data-name="Path 19" d="M215.413,211.206A4.206,4.206,0,1,1,211.206,207,4.206,4.206,0,0,1,215.413,211.206Zm0,0" transform="translate(-189.23 -189.23)" fill="#f8f8f8"/>
      <path id="Path_20" data-name="Path 20" d="M155.667,138.391A4.179,4.179,0,0,0,153.272,136a6.982,6.982,0,0,0-2.343-.434c-1.331-.061-1.73-.074-5.1-.074s-3.769.013-5.1.073a6.986,6.986,0,0,0-2.343.435,4.181,4.181,0,0,0-2.4,2.395,6.984,6.984,0,0,0-.434,2.343c-.061,1.331-.074,1.73-.074,5.1s.013,3.768.074,5.1a6.982,6.982,0,0,0,.434,2.343,4.179,4.179,0,0,0,2.395,2.395,6.974,6.974,0,0,0,2.343.435c1.331.061,1.729.073,5.1.073s3.769-.013,5.1-.073a6.974,6.974,0,0,0,2.343-.435,4.179,4.179,0,0,0,2.395-2.395,6.988,6.988,0,0,0,.435-2.343c.061-1.331.073-1.73.073-5.1s-.013-3.769-.073-5.1A6.973,6.973,0,0,0,155.667,138.391Zm-9.837,13.922a6.48,6.48,0,1,1,6.48-6.48A6.48,6.48,0,0,1,145.83,152.313Zm6.736-11.7a1.514,1.514,0,1,1,1.514-1.514A1.514,1.514,0,0,1,152.566,140.612Zm0,0" transform="translate(-123.854 -123.857)" fill="#f8f8f8"/>
      <path id="Path_21" data-name="Path 21" d="M21.976,0A21.976,21.976,0,1,0,43.952,21.976,21.979,21.979,0,0,0,21.976,0ZM34.519,27.179a9.258,9.258,0,0,1-.586,3.063,6.452,6.452,0,0,1-3.691,3.691,9.265,9.265,0,0,1-3.063.586c-1.346.061-1.776.076-5.2.076s-3.857-.015-5.2-.076a9.265,9.265,0,0,1-3.063-.586,6.452,6.452,0,0,1-3.691-3.691,9.256,9.256,0,0,1-.586-3.063c-.062-1.346-.076-1.776-.076-5.2s.014-3.857.076-5.2a9.259,9.259,0,0,1,.586-3.063A6.457,6.457,0,0,1,13.71,10.02a9.267,9.267,0,0,1,3.063-.586c1.346-.061,1.776-.076,5.2-.076s3.857.015,5.2.076a9.269,9.269,0,0,1,3.063.586,6.454,6.454,0,0,1,3.691,3.691,9.257,9.257,0,0,1,.587,3.063c.061,1.346.076,1.776.076,5.2S34.581,25.833,34.519,27.179Zm0,0" fill="#f8f8f8"/>
    </g>
  </g>
</svg>
